<?xml version="1.0" encoding="UTF-8"?><svg id="Layer_2" xmlns="http://www.w3.org/2000/svg" viewBox="0 0 171.19 93.33"><defs><style>.cls-1{fill:#dfd092;fill-rule:evenodd;stroke-width:0px;}</style></defs><g id="Layer_1-2"><path class="cls-1" d="m58.31,0s35.98,79.63,40.55,85.21c4.58,5.58,12.81,6.04,12.81,6.04v1.91h-35.6v-1.38s5.95-.46,6.68-3.59c.73-3.13-31.39-71.79-31.39-71.79l-26.05,58.59s-2.31,8.37,1.51,13.02c3.82,4.65,8.2,3.46,8.2,3.46v1.86H0v-1.59s9.95-1.2,15.2-7.44C20.45,78.05,56.83.16,56.83.16l1.48-.16Z"/><path class="cls-1" d="m127.04.33h34.01l-.08,1.24s-5.89-.47-12.73,4.19c-6.84,4.65-42.69,33.3-42.69,33.3l30.9,32.67s11.14,11.93,22.03,15.97c10.89,4.04,12.71,2.73,12.71,2.73v2.32h-33.05l-44.09-47.07s35.98-26.5,39.83-33.76c3.84-7.26-6.76-10.53-6.76-10.53l-.09-1.04Z"/></g></svg>